<svg width="29" height="30" viewBox="0 0 29 30" fill="none" xmlns="http://www.w3.org/2000/svg">
<path d="M14.4999 5.33332C15.1416 5.33332 15.6909 5.56996 16.1478 6.04322C16.6048 6.51648 16.8333 7.08541 16.8333 7.74999C16.8333 8.41457 16.6048 8.9835 16.1478 9.45676C15.6909 9.93003 15.1416 10.1667 14.4999 10.1667C13.8583 10.1667 13.3089 9.93003 12.852 9.45676C12.3951 8.9835 12.1666 8.41457 12.1666 7.74999C12.1666 7.08541 12.3951 6.51648 12.852 6.04322C13.3089 5.56996 13.8583 5.33332 14.4999 5.33332ZM14.4999 12.5833C15.1416 12.5833 15.6909 12.82 16.1478 13.2932C16.6048 13.7665 16.8333 14.3354 16.8333 15C16.8333 15.6646 16.6048 16.2335 16.1478 16.7068C15.6909 17.18 15.1416 17.4167 14.4999 17.4167C13.8583 17.4167 13.3089 17.18 12.852 16.7068C12.3951 16.2335 12.1666 15.6646 12.1666 15C12.1666 14.3354 12.3951 13.7665 12.852 13.2932C13.3089 12.82 13.8583 12.5833 14.4999 12.5833ZM14.4999 19.8333C15.1416 19.8333 15.6909 20.07 16.1478 20.5432C16.6048 21.0165 16.8333 21.5854 16.8333 22.25C16.8333 22.9146 16.6048 23.4835 16.1478 23.9568C15.6909 24.43 15.1416 24.6667 14.4999 24.6667C13.8583 24.6667 13.3089 24.43 12.852 23.9568C12.3951 23.4835 12.1666 22.9146 12.1666 22.25C12.1666 21.5854 12.3951 21.0165 12.852 20.5432C13.3089 20.07 13.8583 19.8333 14.4999 19.8333Z" fill="#1D1B20"/>
</svg>
